<?xml version="1.0" encoding="utf-8" ?><svg xmlns="http://www.w3.org/2000/svg" xmlns:xlink="http://www.w3.org/1999/xlink" width="1024" height="1024" viewBox="0 0 1024 1024"><path fill="#A00000" transform="scale(2 2)" d="M360.952 436.185L169.552 436.192C149.415 436.2 132.646 437.513 116.497 422.77C98.0191 405.902 99.4384 389.521 99.4686 367.577L99.4497 125.689C99.4479 119.839 99.2898 114.315 100.115 108.456C103.894 81.6206 126.539 67.9901 151.633 66.8084L282.083 66.8084L282.07 144.947C282.067 151.443 281.764 158.729 283.289 165.001C289.389 190.089 308.659 195.762 330.778 195.749L412.504 195.734L412.514 367.397C412.513 375.298 413.02 385.225 411.61 392.93C406.94 418.44 386.663 435.067 360.952 436.185ZM355.441 239.761L337.106 239.734C319.79 239.724 318.47 240.303 318.46 256.008L318.468 325.793C318.59 345.481 336.998 342.92 339.4 331.257C340.23 327.103 339.987 322.61 339.985 318.395L339.964 301.938L339.964 297.068L358.346 297.092C363.986 297.101 371.102 298.409 374.288 292.894C376.671 288.77 376.137 283.883 372.635 280.533C369.526 277.634 362.482 278.424 358.349 278.426L339.964 278.442L339.964 258.053L361.99 258.069C366.751 258.087 372.896 259.38 376.365 255.48C379.65 251.786 379.094 245.513 375.469 242.311C371.131 238.477 361.18 239.779 355.441 239.761ZM144.727 239.761C132.654 241.577 135.384 254.923 135.393 263.874L135.389 317.176C135.388 323.38 133.73 333.483 139.337 337.552C145.739 342.199 155.065 339.487 156.454 331.322C156.978 328.237 156.777 324.471 156.774 321.315L156.75 305.264C159.283 305.272 161.845 305.301 164.375 305.264C177.653 305.276 189.628 306.01 199.877 295.82C211.817 283.949 211.199 259.822 199.218 248.132C189.527 238.677 177.277 239.749 164.809 239.746L144.727 239.761ZM230.656 239.761C217.445 241.322 220.977 255.548 220.975 266.287L220.977 320.248C220.99 341.302 222.737 339.362 245.051 339.531C258.413 339.633 276.292 340.702 286.885 331.203C317.35 306.312 308.973 243.412 265.77 240.154C254.725 239.321 241.874 239.596 230.656 239.761Z"/><path fill="#A00000" transform="scale(2 2)" d="M412.504 156.285L340.282 156.296C322.906 156.306 320.907 154.62 321.02 136.837L321.042 66.8084C325.713 68.6137 344.038 88.0327 348.379 92.4233L407.525 151.407C409.054 152.938 411.161 154.721 412.504 156.285Z"/><path fill="#A00000" transform="scale(2 2)" d="M243.243 321.016C243.112 319.459 243.229 316.212 243.23 314.544L243.243 258.053C252.271 258.109 264.694 256.473 271.966 262.287C285.434 273.054 283.899 302.071 274.505 314.595C268.714 321.292 262.324 321.045 254.189 321.039L243.243 321.016Z"/><path fill="#A00000" transform="scale(2 2)" d="M156.75 287.898L156.75 258.053C168.83 258.019 186.874 255.014 187.25 272.01C187.371 277.473 187.103 279.773 183.298 283.996C178.345 288.447 172.447 287.969 166.232 287.927L156.75 287.898Z"/></svg>