<?xml version="1.0" encoding="utf-8" ?><svg xmlns="http://www.w3.org/2000/svg" xmlns:xlink="http://www.w3.org/1999/xlink" width="1024" height="1024" viewBox="0 0 1024 1024"><path fill="#FEFEFE" d="M0 0L1024 0L1024 1024L0 1024L0 0Z"/><path fill="#B52A35" d="M316.568 923.913C309.457 925.119 284.965 933.638 280.072 931.954C271.763 929.096 271.43 901.839 265.407 894.919C261.175 890.057 249.744 883.142 244.099 878.997C234.825 872.068 225.734 864.895 216.837 857.488C168.333 816.758 123.933 759.669 97.4992 702.049C47.1806 592.917 42.2301 468.277 83.7348 355.498C127.87 238.487 217.048 144.038 331.335 93.2628C439.685 45.3913 562.657 42.727 672.979 85.861C787.203 129.597 879.443 216.814 929.5 328.413C959.888 396.87 972.661 471.843 966.657 546.501C966.054 554.18 966.375 559.921 964.783 567.774C963.384 574.679 964.43 579.72 961.673 586.932C962.105 590.113 961.421 592.211 960.379 595.256L960.262 595.706C959.803 597.521 959.927 597.61 959.69 599.157C958.365 607.791 956.358 616.424 954.14 624.823C949.108 644.596 942.67 663.985 934.875 682.841C930.878 692.607 926.276 701.909 922.457 711.113C919.891 715.847 917.75 720.802 914.779 725.165C914.521 727.385 910.907 732.836 909.57 735.147C891.715 766.001 870.235 795.813 845.921 821.811C798.419 872.624 740.167 912.185 675.419 937.604C652.285 946.554 628.147 953.831 603.795 958.226C592.788 960.212 580.717 963.831 569.547 964.881C540.342 967.625 511.299 970.239 481.995 967.038C477.179 966.522 468.783 965.484 464.14 966.381C457.532 963.278 452.292 964.517 444.786 963.189C428.781 960.358 412.847 957.482 397.089 953.419C377.087 948.144 357.445 941.59 338.284 933.795C330.931 930.756 323.825 926.854 316.568 923.913Z"/><path fill="#B52A35" d="M914.779 725.165C914.456 721.493 918.144 711.348 921.418 709.911L922.457 711.113C919.891 715.847 917.75 720.802 914.779 725.165Z"/><path fill="#B52A35" d="M961.673 586.932C962.105 590.113 961.421 592.211 960.379 595.256C959.225 591.505 959.034 590.016 961.673 586.932Z"/><path fill="#FEFEFE" d="M494.161 76.773C550.055 74.4264 605.859 83.1908 658.342 102.559C769.323 142.802 859.593 225.769 909.033 332.97C956.734 437.421 960.637 556.621 919.869 663.968C878.978 771.394 797.785 858.624 693.563 907.102C629.934 936.403 560.258 950.18 490.265 947.298C480.303 946.802 470.504 944.932 460.746 944.196C420.511 941.162 385.005 928.806 347.165 914.617C383.761 902.887 421.435 892.806 458.392 882.306L574.556 848.335C599.8 841.037 625.091 833.755 650.306 826.366C658.027 824.103 659.991 824.183 663.788 817.047C663.105 811.862 661.346 807.329 659.879 802.321L653.343 779.57C646.41 755.512 640.176 731.114 632.434 707.397C630.34 700.982 628.682 690.733 625.831 685.037C634.648 681.69 685.557 657.67 690.801 653.215C692.465 651.8 692.912 650.29 693.068 648.138C693.157 646.908 693.125 645.593 692.727 644.415C691.154 639.758 688.785 635.157 686.862 630.619C681.311 617.519 675.391 604.674 669.621 591.683C661.101 572.306 652.437 552.992 643.629 533.744C640.615 527.147 635.366 513.47 631.192 508.683C626.855 507.47 612.317 516.315 607.153 518.858C596.78 523.637 582.305 530.801 572.067 536.058C569.566 531.061 568.841 525.868 567.096 520.66C563.527 510.005 560.346 499.307 557.137 488.54L539.509 427.696C538.106 422.973 536.344 418.215 534.901 413.398C528.488 391.985 523.421 369.435 516.411 348.254C512.16 346.37 505.372 341.48 500.872 339.02C492.054 334.2 483.363 329.157 474.682 324.119C450.838 310.285 426.422 297.559 402.737 283.432C399.966 281.779 392.341 277.632 389.244 278.106C376.084 280.119 362.348 285.616 349.487 289.134C330.603 294.3 312.382 299.82 293.739 305.445C268.366 313.101 242.445 320.237 217.038 327.794C184.059 337.809 150.973 347.465 117.785 356.763C116.526 359.313 120.095 369.229 120.993 372.431C124.173 383.398 127.274 394.388 130.298 405.399C155.25 498.74 180.886 591.897 207.203 684.862C220.555 730.063 233.494 775.385 246.018 820.822C249.934 835.51 254.308 848.32 257.462 863.258C195.191 817.435 140.243 751.357 110.071 679.891C64.8343 575.635 63.559 457.541 106.534 352.332C142.981 262.486 208.018 187.153 291.583 137.986C310.265 126.762 334.499 113.884 354.831 106.193C373.172 99.0484 391.976 93.1532 411.113 88.5482C417.727 86.9964 424.383 85.6281 431.074 84.4448C439.214 82.977 444.552 82.6728 452.11 79.4802C456.341 80.9268 463.501 79.1261 468.26 78.5818C476.863 77.594 485.505 76.9905 494.161 76.773Z"/><path fill="#B52A35" d="M298.408 174.759C288.085 170.418 291.083 162.758 299.553 160.323C309.308 157.519 318.631 153.69 328.209 150.669C381.826 133.75 440.166 127.621 495.964 135.552C509.634 137.495 521.662 138.779 535.329 141.929C599.76 156.39 659.921 185.703 711.017 227.531C716.861 232.34 723.378 237.5 728.879 242.646C755.031 267.39 777.862 295.423 796.8 326.043C805.93 322.382 866.559 289.112 869.81 289.601C871.976 289.926 873.356 292.456 874.488 294.091C874.851 302.153 873.242 312.572 872.557 320.918C871.389 335.483 870.37 350.059 869.501 364.644L862.664 464.652C861.457 482 860.298 499.451 859.051 516.798C858.936 518.4 858.587 519.523 857.412 520.646C856.562 521.457 853.741 522.353 852.659 522.175C843.3 520.637 832.299 517.054 823.112 514.682L754.942 497.327C735.134 492.218 715.278 488.388 695.428 482.772C676.142 477.317 655.692 473.652 636.388 467.87C627.22 465.123 613.924 462.343 606.035 457.208C603.599 453.304 608.533 450.279 610.326 449.234C637.08 433.649 665.51 420.739 692.46 405.532L691.73 403.37C690.113 398.462 686.701 391.366 684.405 386.595C670.329 357.338 652.63 327.244 631.406 302.622C625.849 296.257 620.196 289.975 614.45 283.78C610.732 279.817 606.905 276.69 603.66 272.213C601.53 269.273 603.63 263.694 606.379 262.868C612.693 261.251 618.935 268.887 622.726 272.846C656.348 307.961 687.117 354.163 704.514 399.564C712.306 395.136 721.492 390.877 729.55 386.715L769.354 365.696C776.529 361.879 788.867 355.653 795.13 351.163C730.178 216.766 558.828 130.418 411.553 147.896C408.126 148.303 405.36 149.299 401.861 149.252C388.567 149.077 374.74 154.138 361.373 154.789L360.069 156.282C364.636 156.825 370.577 156.025 375.154 156.486C382.743 157.249 390.427 158.445 397.934 159.795C400.508 160.258 402.645 159.229 404.974 159.981C413.138 162.617 427.851 164.273 435.199 166.021C452.182 170.059 508.649 186.937 518.904 199.339C518.638 206.42 517.935 206.858 511.386 209.224C501.832 204.792 491.498 198.896 481.82 195.004C433.182 175.407 380.73 167.107 328.418 170.728C318.761 171.318 308.619 173.996 299.152 174.707L298.408 174.759Z"/><path fill="#88151E" d="M360.069 156.282C357.101 156.992 351.067 158.688 348.537 157.151C350.379 154.133 358.273 153.808 361.373 154.789L360.069 156.282Z"/><path fill="#B52A35" d="M543.975 212.553C544.609 212.506 545.315 212.446 545.945 212.552C552.222 213.609 583.227 236.118 586.842 241.929C588.012 243.81 588.857 246.224 588.259 248.438C587.62 250.8 585.926 251.992 583.876 253.088C577.159 251.762 566.177 241.404 559.966 237.35C553.702 233.261 546.974 228.861 540.851 224.536C534.94 220.361 536.785 214.233 543.975 212.553Z"/><path fill="#FEFEFE" d="M372.695 297.72L374.256 297.444L375.063 298.051C380.522 315.352 385.422 333.078 390.323 350.555C392.767 359.271 399.69 378.92 400.328 386.858L406.161 393.436C414.292 392.784 436.673 385.434 445.107 382.857L497.947 367.025C500.461 366.26 504.115 364.988 506.398 366.207C506.878 369.916 510.318 379.059 511.463 383.208C514.516 394.277 518.19 405.592 521.33 416.58L545.865 502.038C548.42 511.161 551.032 520.269 553.701 529.359C554.879 533.422 555.764 538.339 557.692 541.986C552.592 546.159 541.844 550.488 535.8 553.583C526.451 558.371 516.93 562.998 507.57 567.786C451.994 596.466 396.136 624.597 340.004 652.174C324.588 659.783 308.188 666.836 293.687 675.888C289.961 678.243 291.755 682.787 293.222 686.014C311.898 727.09 330.449 768.219 349.645 809.058C351.134 812.76 354.49 816.765 359.047 814.747C386.741 802.485 414.847 788.433 441.85 774.86C458.506 766.658 475.217 758.567 491.981 750.589L563.798 715.252C570.877 711.771 608.891 692.243 613.336 692.179C614.451 693.985 615.289 695.921 615.898 697.959C621.063 715.24 625.636 732.732 630.847 749.984C630.898 750.151 631.195 752.371 631.239 752.638C632.683 755.727 637.2 772.47 638.2 776.686C640.443 786.141 646.404 802.553 647.666 811.36C645.899 812.738 626.769 818.082 622.85 819.261C587.167 830.066 551.354 840.438 515.418 850.375L369.991 892.352C347.656 898.795 325.483 905.951 303.057 912.098C298.59 913.322 293.076 915.248 288.567 915.806C286.172 913.571 283.746 900.615 282.629 896.741L259.492 815.488C241.084 752.27 223.057 688.942 205.412 625.506L181.317 538.84C172.274 505.32 163.113 471.847 153.969 438.361L139.545 386.298C138.794 383.558 134.196 369.16 134.357 368.2C137.926 365.185 209.136 345.563 218.994 342.732L311.662 315.54L351.738 303.393C356.793 301.875 368.055 298.105 372.695 297.72Z"/><path fill="#B52A35" d="M474.574 410.977C477.322 410.821 477.988 411.814 480.192 413.584C481.373 417.759 485.383 427.78 483.608 431.376C483.267 432.067 482.434 432.184 481.583 432.435L294.814 486.852C279.145 491.334 263.498 495.894 247.874 500.533C239.58 503.003 228.534 506.674 220.288 508.558C218.859 509.097 218.054 509.604 216.608 509.206C211.63 505.549 212.389 494.781 209.329 488.866C213.824 486.846 227.761 483.509 233.225 481.948L276.855 469.122L388.604 436.346L443.604 420.204C453.15 417.403 465.473 414.31 474.574 410.977Z"/><path fill="#B52A35" d="M503.539 497.573C505.648 501.202 509.577 515.528 507.964 519.362C505.748 520.709 478.648 527.831 473.879 529.333C396.314 553.328 318.449 576.341 240.301 598.366C238.405 594.585 234.558 581.712 234.312 577.671C237.545 573.879 388.879 533.222 405.282 527.595C430.957 518.786 476.034 507.132 503.539 497.573Z"/><path fill="#B52A35" d="M489.054 454.981L490.415 455.116C490.722 455.639 490.949 456.077 491.247 456.603C493.281 460.2 494.403 464.734 495.334 468.748C495.754 470.557 495.003 471.216 495.678 472.677C496.098 473.584 496.121 473.913 496.273 474.863C494.804 477.024 475.359 482.116 471.606 483.201C459.062 486.789 446.537 490.447 434.034 494.174L342.245 521.359C315.529 529.04 288.743 536.268 262.155 544.424C256.108 546.279 233.756 551.553 230.453 554.116C230.143 554.001 228.918 553.572 228.763 553.41C225.704 550.222 222.807 537.354 221.686 533.217C229.715 530.181 238.879 527.999 247.211 525.639L284.98 514.602L411.707 477.77C431.003 472.429 450.219 466.806 469.35 460.904C475.732 458.964 482.865 457.122 489.054 454.981Z"/><path fill="#FEFEFE" d="M624.857 524.955C627.835 526.955 672.715 631.804 677.515 643.883C657.91 654.414 637.371 664.239 617.413 674.131L483.739 739.334L419.865 770.589C401.226 779.92 379.321 791.314 360.429 799.578C358.127 796.217 355.563 790.24 353.752 786.445C348.852 776.179 344.544 765.564 339.799 755.226L318.096 708.085C315.093 701.438 309.782 690.445 307.695 683.839C310.329 681.117 335.534 669.46 340.358 667.085L376.68 648.961L624.857 524.955Z"/><path fill="#B52A35" d="M483.486 610.644C508.921 609.405 522.858 619.162 533.693 642.491C541.71 659.752 544.6 684.172 530.319 699.428C519.048 711.467 496.846 720.195 481.617 727.349C478.421 729.014 474.912 731.999 471.568 731.677C468.163 728.728 460.246 707.378 457.535 701.78C450.413 687.075 443.509 672.182 437.035 657.076C436.222 654.214 426.768 637.229 429.122 635.231C437.634 628.002 474.715 612.453 483.486 610.644Z"/><path fill="#FEFEFE" d="M487.139 623.614C498.67 623.127 509.276 625.656 516.03 635.949C529.072 655.826 536.058 680.87 514.214 697.625C507.838 702.516 498.58 705.263 491.389 708.853C488.751 710.171 485.576 711.059 483.227 712.71L477.308 716.104C471.854 704.556 465.861 693.078 461.382 681.055C461.114 680.337 459.915 679.726 459.299 679.37C455.932 668.399 446.146 650.177 443.906 640.349C452.342 638.686 472.252 624.606 483.408 624.156C485.122 624.087 484.893 624.163 486.685 623.728L487.139 623.614Z"/><path fill="#B52A35" d="M483.708 626.044C487.579 628.538 496.357 625.085 504.61 633.399C526.361 655.31 532.984 692.184 497.045 703.469C493.618 704.545 491.862 707.449 487.914 707.499C485.78 709.023 482.048 712.076 480.208 709.297C475.495 701.226 471.038 690.021 467.48 681.373C464.567 674.291 451.449 649.969 451.025 643.546C454.448 636.216 477.096 630.534 483.708 626.044Z"/><path fill="#FEFEFE" d="M483.84 638.517C488.486 639.517 491.657 638.921 496.156 642.156C504.395 648.238 508.596 658.737 510.971 668.293C513.76 679.513 502.531 691.126 491.994 692.318C490.195 693.173 488.332 694.292 486.392 694.351C484.818 692.707 467.496 651.128 465.787 646.367C471.128 643.728 477.882 641.364 483.84 638.517Z"/><path fill="#B52A35" d="M397.987 650.56C402.472 649.806 411.525 651.479 415.511 653.521C430.626 661.266 441.391 685.109 433.309 700.955C427.86 711.639 416.031 715.937 405.784 720.801C402.55 722.336 399.938 723.796 396.614 724.907C398.118 732.12 398.645 732.993 401.369 739.595C403.86 745.633 410.863 757.3 411.07 763.285C408.115 766.7 396.733 771.408 391.919 773.646C382.131 779.166 383.745 774.716 379.5 766.038C377.6 762.152 375.983 757.805 374.252 753.81L352.735 704.922C349.305 697.25 344.953 689.734 341.663 682.013C340.967 680.38 341.467 678.306 341.73 676.475C345.963 673.149 390.859 652.384 397.987 650.56Z"/><path fill="#FEFEFE" d="M378.812 671.993L379.392 672.636C378.881 676.389 364.908 679.383 362.298 683.962C362.295 688.109 373.619 708.648 375.622 714.001C375.843 714.593 378.22 717.388 378.818 718.082C381.183 716.937 384.219 715.28 386.698 714.696L388.145 715.98C388.365 715.196 388.504 714.455 388.616 713.651C389.209 713.197 401.277 707.348 402.225 707.215L402.924 707.8C402.966 708.093 403.009 708.387 403.052 708.68C398.616 712.139 383.617 717.794 380.865 721.843C380.633 725.591 385.477 734.922 387.395 738.442C388.912 743.419 395.205 754.751 395.701 758.667C394.368 760.238 392.583 760.787 390.654 761.658C390.194 759.939 383.578 744.468 382.617 742.264C377.028 729.441 371.773 716.43 365.83 703.765C363.6 699.013 358.516 688.079 357.712 683.56C359.579 680.672 374.805 673.783 378.812 671.993Z"/><path fill="#FEFEFE" d="M397.119 679.561C400.21 679.316 401.924 679.641 403.472 682.629C404.508 684.628 406.328 687.433 405.267 689.733C402.242 696.287 391.063 698.916 385.136 701.754L383.829 701.856C381.599 700.13 378.149 692.124 376.771 689.15C383.285 686.142 390.487 680.913 397.119 679.561Z"/><path fill="#FEFEFE" d="M402.155 662.552C411.543 664.275 417.678 667.241 421.853 676.589C425.665 685.123 424.351 689.879 421.289 698.136C417.792 700.909 409.375 706.489 404.999 707.15L405.052 706.472C407.275 704.326 413 700.586 415.976 698.349C416.598 696.766 417.112 695.143 417.512 693.49C420.528 681.216 409.097 665.887 396.099 666.757C391.478 667.066 383.595 673.165 380.598 672.493L380.572 671.386C382.846 668.84 398.217 663.541 402.155 662.552Z"/><path fill="#B52A35" d="M594.143 555.427C597.551 556.585 598.229 563.814 599.441 566.557C601.463 571.138 604.135 574.934 604.399 580.125C604.25 580.481 604.101 580.837 603.952 581.192C594.881 587.019 567.892 597.816 560.345 603.1C562.445 606.96 562.946 608.09 564.04 612.169C570.5 609.279 576.962 606.184 583.304 603.172C586.369 601.988 600.241 592.743 602.475 594.462C605.879 597.08 611.705 613.005 612.145 617.174C610.933 619.758 580.157 633.238 574.604 636.224C578.744 645.242 581.447 653.864 586.11 663.144C587.902 667.141 589.339 670.487 590.855 674.587C587.013 677.673 570.261 686.236 565.661 687.915C564.425 687.32 563.1 685.219 562.45 683.955C556.373 671.785 551.632 659.097 546.243 646.556C538.806 629.251 531.684 611.715 524.133 594.447C523.472 592.937 523.423 591.596 523.842 590.005C529.281 585.8 545.623 579.523 552.69 576.084C566.368 569.428 580.379 561.74 594.143 555.427Z"/><path fill="#FEFEFE" d="M571.093 672.581C564.66 660.519 559.794 646.441 553.753 634.069C552.619 632.648 551.67 626.43 551.123 625.509C545.773 616.503 544.047 607.661 538.373 598.405C539.504 595.797 581.345 575.65 588.106 572.271C589.43 573.106 588.952 572.56 589.623 573.938C587.681 577.96 544.802 593.852 545.803 597.085C547.479 602.502 553.386 620.056 557.025 625.861C559.267 629.438 572.512 619.702 577.791 619.21L578.472 620.538C573.403 624.582 566.665 625.574 561.209 630.57C560.016 634.925 572.926 663.528 575.507 669.23L571.093 672.581Z"/><path fill="#FEFEFE" d="M577.791 619.21C581.308 616.684 591.983 611.061 596.176 610.846L597.094 611.413L597.075 612.407C593.896 614.285 581.846 619.575 578.472 620.538L577.791 619.21Z"/><path fill="#FEFEFE" d="M400.514 307.713C406.757 308.858 470.298 346.17 477.424 350.823C473.355 352.124 468.548 353.366 464.387 354.554C448.71 359.615 434.486 363.551 418.805 368.129C417.602 362.802 415.65 358.46 414.23 353.296L406.913 327.137C405.299 321.433 403.129 312.772 400.514 307.713Z"/></svg>