<?xml version="1.0" encoding="utf-8" ?><svg xmlns="http://www.w3.org/2000/svg" xmlns:xlink="http://www.w3.org/1999/xlink" width="1024" height="1024" viewBox="0 0 1024 1024"><path fill="#E33913" transform="scale(2 2)" d="M333.938 94.716C335.851 94.9045 345.756 105.355 347.746 107.276L368.483 126.974C375.251 133.464 383.817 140.783 390.029 147.482L390.815 233.497L390.815 361.748L382.022 361.748C382.132 365.797 382.043 370.09 382.022 374.158L406.986 374.147C410.218 374.141 415.693 373.934 418.694 374.158C415.58 378.321 411.401 382.783 408.039 386.885L367.891 436.148C364.987 439.783 361.157 444.838 357.947 447.993C343.19 433.681 326.571 410.392 312.611 394.286L311.987 394.439C311.432 395.555 311.502 396.488 311.436 397.747C311.239 397.759 311.041 397.771 310.844 397.783L196.583 397.748C177.403 397.753 171.543 401.451 171.269 378.809C171.197 372.852 171.35 367.056 171.284 361.18L171.284 269.204L133.427 269.201C115.992 269.209 93.5455 271.163 93.4511 246.974L93.5038 167.621C93.5058 141.097 105.054 141.601 128.026 141.61L168.317 141.603C169.013 141.308 169.922 141.52 170.751 141.603C170.011 134.004 170.327 103.687 172.383 98.2795C174.222 93.4453 186.471 94.6572 190.28 94.6959L296.36 94.6802C304.632 94.6993 326.836 95.9713 333.938 94.716ZM182.754 236.008L196.771 236.02C206.081 236.011 218.347 236.303 225.456 229.344C234.848 218.076 235.591 191.435 224.174 181.925C215.729 174.891 194.371 176.468 182.754 176.717L182.754 236.008ZM127.21 236.008C131.33 236.07 135.482 236.025 139.606 236.008L139.606 214.67L151.063 214.67C158.032 214.327 164.125 213.515 169.065 208.095C175.272 201.285 175.27 188.354 168.217 182.146C160.994 175.786 151.579 176.696 142.698 176.707L127.21 176.717L127.202 216.248C127.201 222.529 127.027 229.792 127.21 236.008Z"/><path fill="#FDC901" transform="scale(2 2)" d="M313.933 233.497L390.815 233.497L390.815 361.748L382.022 361.748C382.132 365.797 382.043 370.09 382.022 374.158L406.986 374.147C410.218 374.141 415.693 373.934 418.694 374.158C415.58 378.321 411.401 382.783 408.039 386.885L367.891 436.148C364.987 439.783 361.157 444.838 357.947 447.993C343.19 433.681 326.571 410.392 312.611 394.286L311.987 394.439C311.432 395.555 311.502 396.488 311.436 397.747C311.239 397.759 311.041 397.771 310.844 397.783L196.583 397.748C177.403 397.753 171.543 401.451 171.269 378.809C171.197 372.852 171.35 367.056 171.284 361.18L171.284 269.204L285.72 269.225C307.089 269.25 314.021 266.171 313.963 244.583L313.933 233.497Z"/><path fill="#EF6200" transform="scale(2 2)" d="M332.139 274.245L382.022 274.245L381.992 353.983C381.986 355.206 381.876 360.826 382.022 361.748C382.132 365.797 382.043 370.09 382.022 374.158L406.986 374.147C410.218 374.141 415.693 373.934 418.694 374.158C415.58 378.321 411.401 382.783 408.039 386.885L367.891 436.148C364.987 439.783 361.157 444.838 357.947 447.993C343.19 433.681 326.571 410.392 312.611 394.286C308.317 387.834 300.915 380.499 295.845 374.158C298.69 374.372 304.531 374.174 307.572 374.172L332.139 374.158C332.154 369.839 332.193 365.496 332.139 361.18C331.956 354.796 332.136 347.474 332.137 341.028L332.139 300.908C332.347 297.236 332.144 291.411 332.139 287.569L332.139 274.245Z"/><path fill="#DEDEDE" transform="scale(2 2)" d="M171.284 361.18L332.139 361.18C332.193 365.496 332.154 369.839 332.139 374.158L307.572 374.172C304.531 374.174 298.69 374.372 295.845 374.158C300.915 380.499 308.317 387.834 312.611 394.286L311.987 394.439C311.432 395.555 311.502 396.488 311.436 397.747C311.239 397.759 311.041 397.771 310.844 397.783L196.583 397.748C177.403 397.753 171.543 401.451 171.269 378.809C171.197 372.852 171.35 367.056 171.284 361.18Z"/><path fill="#AC7303" transform="scale(2 2)" d="M332.139 300.908L225.538 300.917C220.739 300.919 216.174 300.906 211.216 300.763C205.166 301.094 202.515 293.492 206.266 289.432C208.981 286.494 219.302 287.57 223.167 287.58L332.139 287.569C332.144 291.411 332.347 297.236 332.139 300.908Z"/><path fill="#AC7303" transform="scale(2 2)" d="M210.507 319.028C213.805 318.848 219.255 319.022 222.688 319.021L294.245 319.066C303.898 319.032 305.228 330.093 296.8 332.567C294.035 332.812 288.948 332.575 285.907 332.573L230.213 332.57C224.117 332.571 218.04 332.604 211.937 332.485C202.674 332.306 201.808 320.584 210.507 319.028Z"/><path fill="#DEDEDE" transform="scale(2 2)" d="M333.938 94.716C335.851 94.9045 345.756 105.355 347.746 107.276L368.483 126.974C375.251 133.464 383.817 140.783 390.029 147.482L390.815 233.497L313.933 233.497L313.937 180.815C313.937 170.878 316.219 154.659 309.449 147.148C303.436 140.476 295.027 141.583 286.918 141.592L200.42 141.602C190.42 141.602 178.133 141.961 168.317 141.603C169.013 141.308 169.922 141.52 170.751 141.603C170.011 134.004 170.327 103.687 172.383 98.2795C174.222 93.4453 186.471 94.6572 190.28 94.6959L296.36 94.6802C304.632 94.6993 326.836 95.9713 333.938 94.716Z"/><path fill="#FDE464" transform="scale(2 2)" d="M333.938 94.716C335.851 94.9045 345.756 105.355 347.746 107.276L368.483 126.974C375.251 133.464 383.817 140.783 390.029 147.482L365.59 147.493C358.001 147.495 349.86 148.332 343.024 144.664C329.397 137.353 334.423 116.443 333.896 102.826C333.81 100.487 333.698 96.9616 333.938 94.716Z"/><path fill="#E33913" transform="scale(2 2)" d="M195.103 185.89C201.261 186.326 209.64 184.752 214.753 188.966C222.032 194.965 222.46 214.97 216.321 222.337C210.797 227.642 202.485 226.509 195.103 226.485L195.103 185.89Z"/><path fill="#E33913" transform="scale(2 2)" d="M139.606 185.89C148.307 186.28 163.433 183.946 161.453 197.883C161.199 199.671 159.997 201.422 158.874 202.79C154.493 206.345 145.389 205.438 139.606 205.42C139.491 199.006 139.592 192.324 139.606 185.89Z"/><path fill="#FEFEFE" transform="scale(2 2)" d="M241.973 176.717L282.943 176.717L282.943 185.89C273.448 185.722 263.282 185.887 253.742 185.89L253.742 201.757L278.443 201.757L278.443 205.42L278.443 211.255L253.742 211.255L253.742 236.008L241.973 236.008L241.973 176.717Z"/></svg>